<svg width="1911" height="392" viewBox="0 0 1911 392" fill="none" xmlns="http://www.w3.org/2000/svg">
<path d="M943.984 191.969V383.158H984.865H1025.75V191.969V0.779846H984.865H943.984V191.969Z" fill="white"/>
<path d="M404.667 23.58L404.662 23.5819C402.514 24.5185 400.038 26.5582 397.598 29.3415C395.165 32.1158 392.799 35.5937 390.859 39.3602C388.768 43.486 387.483 49.259 387.155 54.4108C386.991 56.9838 387.067 59.3801 387.392 61.3203C387.721 63.2834 388.288 64.6792 389.022 65.3682C390.847 66.9805 393.13 67.0767 395.661 65.9304C398.213 64.7744 400.95 62.3731 403.508 59.123C408.621 52.6275 412.896 42.9039 413.522 33.5729C413.754 29.6839 413.831 27.6649 413.56 26.3795C413.431 25.7642 413.224 25.3386 412.92 24.9625C412.605 24.5743 412.172 24.2191 411.545 23.7631C411.448 23.6972 411.355 23.6337 411.265 23.5724C410.597 23.1186 410.111 22.7879 409.694 22.5568C409.232 22.3006 408.901 22.1946 408.563 22.1837C408.215 22.1724 407.806 22.2607 407.182 22.4941C406.625 22.7027 405.94 23.0097 405.017 23.4233C404.904 23.4739 404.787 23.5261 404.667 23.58Z" fill="white" stroke="white"/>
<path d="M351.71 44.7631L351.706 44.7706L351.702 44.778C351.104 45.9193 350.568 47.7599 350.153 50.0483C349.741 52.3258 349.455 55.0091 349.34 57.8114L349.34 57.8131C349.167 61.7375 349.142 64.1092 349.379 65.7831C349.61 67.4139 350.088 68.368 350.957 69.4549C351.794 70.4797 352.753 71.1265 353.82 71.4276C354.892 71.7297 356.111 71.6948 357.48 71.2907C360.236 70.4776 363.532 68.1897 367.253 64.3533L367.255 64.3508C374.329 57.1624 377.732 50.6888 379.326 41.3522L379.326 41.3522L379.327 41.3476C379.949 37.8943 379.922 33.8317 379.454 30.6393C379.219 29.0408 378.878 27.6895 378.47 26.7516C378.265 26.2811 378.054 25.9422 377.853 25.7284C377.654 25.5161 377.503 25.4664 377.4 25.4664C377.114 25.4664 376.668 25.399 376.199 25.2965C375.728 25.1934 375.196 25.0464 374.715 24.8674C374.608 24.8421 374.374 24.8326 373.988 24.8797C373.602 24.9266 373.121 25.0222 372.573 25.1628C371.478 25.4434 370.152 25.8945 368.851 26.4598C366.413 27.5699 362.9 30.5297 359.584 34.0619C356.275 37.5865 353.233 41.6037 351.71 44.7631Z" fill="white" stroke="white"/>
<path d="M434.394 29.3681L434.391 29.371C429.812 33.4418 425.761 40.4115 423.302 47.3334C422.074 50.7886 421.25 54.2107 420.953 57.228C420.654 60.2568 420.892 62.8205 421.727 64.6015C422.507 66.2162 423.407 67.2156 424.374 67.6961C425.323 68.1676 426.413 68.1771 427.677 67.6517C428.954 67.1205 430.388 66.0483 431.958 64.3916C433.523 62.7389 435.203 60.5278 436.977 57.7519L436.977 57.7519L436.979 57.7485C441.661 50.5539 444.423 42.3665 445.034 36.004C445.34 32.8163 445.1 30.1381 444.337 28.2804C443.957 27.3566 443.456 26.656 442.848 26.1874C442.245 25.7232 441.512 25.4662 440.623 25.4662C440.408 25.4662 440.065 25.5496 439.599 25.7484C439.144 25.9422 438.613 26.2273 438.037 26.5857C436.885 27.3022 435.584 28.2913 434.394 29.3681Z" fill="white" stroke="white"/>
<path d="M618.083 207.517V383.158H696.276C777.579 383.158 789.901 382.582 808.672 377.86C842.528 369.337 866.827 353.789 881.337 331.214C891.932 314.86 896.193 297.468 895.271 274.434C894.465 252.896 889.859 239.766 878.113 224.794C869.591 214.082 852.663 203.832 838.959 200.952C834.928 200.146 832.279 198.995 832.279 198.073C832.279 197.267 832.855 196.576 833.661 196.576C834.352 196.576 839.189 194.503 844.486 191.969C869.706 179.76 882.949 153.04 881.452 117.106C880.416 91.9978 874.658 77.4858 859.342 62.2828C851.626 54.451 848.056 52.0323 838.037 46.9647C824.679 40.3997 806.484 35.2169 789.095 33.1438C782.53 32.3376 749.595 31.8769 698.464 31.8769H618.083V207.517ZM772.396 108.468C781.84 111.347 788.979 118.949 790.822 127.932C791.513 131.618 791.858 137.031 791.398 140.025C790.361 147.281 785.87 156.38 781.609 159.49C774.124 165.018 770.784 165.479 736.006 165.479H703.301V136.34C703.301 120.215 703.646 106.74 704.222 106.164C704.683 105.703 718.732 105.588 735.545 105.934C759.383 106.395 767.445 106.97 772.396 108.468ZM775.966 242.646C796.35 246.446 806.023 260.498 802.338 280.999C800.611 290.558 796.234 296.893 787.828 301.615C777.579 307.258 768.481 308.525 734.394 308.755L703.877 308.871L703.531 275.125L703.301 241.494H736.467C754.777 241.494 772.627 241.954 775.966 242.646Z" fill="white"/>
<path d="M326.102 36.8887L326.102 36.8888C320.154 41.1943 315.254 48.4173 312.487 55.8068C309.711 63.2198 309.135 70.6493 311.627 75.4112L311.628 75.4146C312.679 77.4605 314.003 78.6427 315.474 79.1747C316.951 79.7087 318.649 79.6139 320.49 78.9616C324.191 77.6508 328.326 74.1372 331.994 69.4606C335.652 64.796 338.799 59.0339 340.552 53.3077C342.307 47.5713 342.644 41.9379 340.779 37.4831L340.778 37.4804C340.374 36.5001 340.054 35.7723 339.738 35.221C339.424 34.675 339.131 34.333 338.797 34.1024C338.464 33.8727 338.049 33.7256 337.444 33.6387C336.832 33.5507 336.058 33.5286 335.022 33.5286C332.047 33.5286 329.384 34.5119 326.102 36.8887Z" fill="white" stroke="white"/>
<path d="M458.798 73.1136L458.798 73.1135L458.801 73.11C464.545 67.0814 469.118 57.6903 471.218 49.7736C472.269 45.8121 472.687 42.2717 472.352 39.7347C472.184 38.4661 471.835 37.4946 471.326 36.8437C470.837 36.2189 470.184 35.864 469.31 35.8329C469.301 35.8356 469.266 35.8449 469.198 35.8744C469.099 35.9174 468.968 35.9864 468.805 36.0847C468.478 36.2808 468.059 36.5716 467.569 36.9409C466.591 37.6779 465.365 38.704 464.106 39.8484C461.52 42.2101 457.754 47.5621 455.236 52.5988C453.394 56.398 452.35 58.8043 451.759 61.125C451.171 63.4384 451.026 65.6913 451.026 69.1935C451.026 71.7473 451.156 73.6926 451.442 75.07C451.736 76.4852 452.163 77.1358 452.605 77.3546C453.018 77.5588 453.679 77.4899 454.771 76.776C455.836 76.0795 457.163 74.8633 458.798 73.1136Z" fill="white" stroke="white"/>
<path d="M286.115 48.3093L286.108 48.3135L286.101 48.3174C281.491 51.0163 276.601 56.9127 273.868 63.0616C272.528 66.0782 271.926 70.4299 272.054 74.6342C272.183 78.8501 273.042 82.7966 274.519 85.0413C275.302 86.2161 275.957 86.8741 276.838 87.2646C277.743 87.6653 278.947 87.812 280.897 87.812C283.056 87.812 284.302 87.6399 285.669 86.8434C287.081 86.0207 288.644 84.5218 291.364 81.743C296.042 76.9504 297.834 74.0244 299.303 69.052C300.38 65.3676 300.778 61.3374 300.551 57.6924C300.323 54.036 299.471 50.8228 298.098 48.7365L298.098 48.7366L298.094 48.7293C297.108 47.173 295.351 46.307 293.197 46.2115C291.04 46.1159 288.519 46.7994 286.115 48.3093Z" fill="white" stroke="white"/>
<path d="M474.379 81.37C476.695 74.2934 481.126 65.8396 486.247 60.3195L474.379 81.37ZM474.379 81.37C473.22 84.9123 472.607 88.0614 472.68 90.2988M474.379 81.37L472.68 90.2988M472.68 90.2988C472.716 91.4214 472.924 92.2559 473.268 92.795M472.68 90.2988L473.268 92.795M473.268 92.795C473.592 93.3013 474.047 93.5708 474.71 93.5708M473.268 92.795L474.71 93.5708M474.71 93.5708C474.907 93.5708 475.251 93.4574 475.759 93.1352M474.71 93.5708L475.759 93.1352M475.759 93.1352C476.25 92.8242 476.83 92.3594 477.481 91.7567M475.759 93.1352L477.481 91.7567M477.481 91.7567C478.782 90.5527 480.323 88.8388 481.934 86.8197M477.481 91.7567L481.934 86.8197M481.934 86.8197C485.155 82.7822 488.618 77.5715 490.96 72.8863M481.934 86.8197L490.96 72.8863M490.96 72.8863C493.717 67.3151 495.267 62.8308 495.589 59.7687C495.75 58.2313 495.593 57.1288 495.199 56.4294C494.831 55.776 494.22 55.4116 493.25 55.4116C492.542 55.4116 491.553 55.8 490.324 56.6477C489.112 57.484 487.729 58.7234 486.247 60.3193L490.96 72.8863Z" fill="white" stroke="white"/>
<path d="M243.276 62.1297L243.273 62.1316C239.132 64.7063 235.969 69.178 234.256 74.2483C232.543 79.3174 232.296 84.9335 233.925 89.7649L233.926 89.7679C234.94 92.8396 236.412 95.0132 238.125 96.3551C239.83 97.6913 241.8 98.2236 243.872 97.9798C248.042 97.4891 252.737 93.8277 256.387 86.9267L256.387 86.9262C257.882 84.1075 258.657 82.3786 259.015 80.5565C259.375 78.73 259.324 76.7771 259.094 73.4911C258.75 68.9721 257.896 65.7628 256.497 63.6375C255.122 61.5481 253.198 60.4685 250.577 60.2481C248.254 60.1394 245.368 60.8088 243.276 62.1297Z" fill="white" stroke="white"/>
<path d="M201.429 74.133L201.427 74.1339C199.9 74.8841 198.509 76.3192 197.338 78.2311C196.17 80.1384 195.241 82.4888 194.624 85.0186C193.388 90.0911 193.43 95.7899 195.217 99.979L195.217 99.979L195.219 99.9833C197.017 104.31 199.963 106.936 203.099 107.724C206.219 108.507 209.634 107.498 212.465 104.334L212.465 104.333C218.308 97.8151 218.995 88.4886 216.443 81.6633C215.168 78.2541 213.105 75.522 210.535 74.07C207.988 72.6309 204.889 72.4165 201.429 74.133Z" fill="white" stroke="white"/>
<path d="M505.513 84.5758L505.513 84.5759L505.506 84.5805C502.251 86.7693 498.524 91.1641 495.4 96.0946C492.278 101.022 489.809 106.403 489.02 110.519L489.02 110.519L489.019 110.523C488.795 111.643 488.714 112.695 488.755 113.495C488.775 113.897 488.825 114.217 488.894 114.443C488.961 114.663 489.022 114.72 489.021 114.721C489.021 114.721 489.02 114.721 489.02 114.721L489.026 114.724C489.223 114.849 489.587 114.893 490.212 114.685C490.82 114.482 491.573 114.073 492.442 113.47C494.174 112.267 496.274 110.358 498.457 108.038C502.824 103.398 507.455 97.1903 510.076 91.891C511.246 89.5232 511.96 87.5441 512.267 85.9958C512.579 84.4218 512.449 83.4 512.08 82.8439C511.754 82.3532 511.139 82.0898 510.025 82.3178C508.901 82.5479 507.391 83.2666 505.513 84.5758Z" fill="white" stroke="white"/>
<path d="M159.874 85.8715L159.869 85.8737C159.048 86.312 158.219 86.9189 157.544 87.5535C156.857 88.1978 156.373 88.8288 156.183 89.3038L156.183 89.3038L156.181 89.3088C152.445 98.366 153.818 106.896 159.757 112.951C162.228 115.364 164.816 116.55 167.183 116.577C169.533 116.603 171.751 115.489 173.513 113.121L173.514 113.119C176.39 109.303 177.036 103.307 175.914 97.7837C174.79 92.2463 171.939 87.4101 168.076 85.7779L168.075 85.7775C166.919 85.2861 166.061 84.9276 165.354 84.6922C164.652 84.4581 164.133 84.3571 163.657 84.3633C162.698 84.3757 161.808 84.8163 159.874 85.8715Z" fill="white" stroke="white"/>
<path d="M117.494 95.5761C116.688 96.3821 116.072 97.6263 115.676 99.1793C115.282 100.726 115.115 102.542 115.178 104.449C115.306 108.27 116.354 112.379 118.251 115.337C121.656 120.558 126.127 123.516 130.384 123.516C131.474 123.516 132.174 123.326 132.768 122.827C133.391 122.304 133.958 121.392 134.644 119.792C136.884 114.3 136.558 109.157 133.626 103.403C132.221 100.819 130.05 98.307 127.791 96.4433C126.662 95.5117 125.521 94.7504 124.455 94.2241C123.382 93.6947 122.417 93.4191 121.631 93.4191C121.113 93.4191 120.391 93.6383 119.616 94.0397C118.851 94.4357 118.088 94.982 117.494 95.5761Z" fill="white" stroke="white"/>
<path d="M1.32935 101.096C1.32935 102.834 2.06464 105.397 3.28603 108.314C4.49994 111.213 6.16819 114.401 7.97843 117.363C9.7896 120.327 11.7335 123.051 13.4941 125.026C14.3752 126.015 15.1991 126.803 15.9275 127.34C16.673 127.89 17.2472 128.123 17.6426 128.123C18.0599 128.123 18.3279 127.953 18.5199 127.609C18.7341 127.226 18.856 126.612 18.8431 125.757C18.8173 124.057 18.2659 121.652 17.3009 118.928C15.3739 113.489 11.8622 106.957 7.94279 102.582C6.65548 101.152 5.55984 100.072 4.64426 99.3309C3.71322 98.5771 3.02674 98.2223 2.55311 98.1499C2.33124 98.1159 2.17897 98.1474 2.06634 98.2074C1.9513 98.2686 1.82869 98.3858 1.71431 98.6069C1.47491 99.0698 1.32935 99.8755 1.32935 101.096Z" fill="white" stroke="white"/>
<path d="M78.0131 100.373L78.0132 100.374L78.0029 100.379C76.9566 100.974 76.3288 102.326 76.1835 104.32C76.0398 106.292 76.3822 108.76 77.1282 111.368C78.6227 116.592 81.6906 122.22 85.4467 125.36L85.4468 125.36L85.4496 125.362C87.273 126.91 89.5671 127.819 91.5089 128.01C92.4799 128.106 93.3327 128.019 93.9842 127.771C94.6278 127.525 95.0549 127.132 95.2525 126.605L95.2538 126.601C96.5126 123.317 95.9285 118.278 94.101 113.409C92.2783 108.552 89.2776 104.024 85.8856 101.743C83.6823 100.293 82.3878 99.5822 81.3146 99.4011C80.3018 99.2303 79.4257 99.5258 78.0131 100.373Z" fill="white" stroke="white"/>
<path d="M38.8441 102.137L38.8442 102.137L38.8356 102.145C38.3904 102.58 38.1198 103.317 38.0722 104.379C38.025 105.434 38.2014 106.736 38.5703 108.207C39.3072 111.147 40.7883 114.666 42.625 118.032C44.4614 121.398 46.6374 124.583 48.748 126.86C49.804 127.999 50.8294 128.896 51.7739 129.477C52.7234 130.061 53.534 130.292 54.1878 130.202C54.6895 130.118 55.0194 130.022 55.2556 129.879C55.4709 129.749 55.6378 129.563 55.7686 129.222C55.9067 128.861 56.0001 128.339 56.0477 127.556C56.0949 126.779 56.0954 125.782 56.0667 124.49C55.8976 118.7 52.7063 111.834 48.9057 107.051C47.006 104.66 44.9903 102.836 43.1761 101.925C42.2713 101.47 41.4454 101.257 40.7251 101.287C40.0187 101.317 39.3874 101.581 38.8441 102.137Z" fill="white" stroke="white"/>
<path d="M371.08 102.915L371.077 102.917C367.768 104.737 364.659 109.018 362.517 114.132C360.38 119.231 359.254 125.045 359.817 129.832L359.817 129.832C360.187 132.995 360.84 135.563 361.703 137.516C362.568 139.473 363.626 140.776 364.787 141.467C365.929 142.147 367.219 142.266 368.643 141.76C370.085 141.249 371.672 140.091 373.339 138.199C377.842 133.019 380.701 124.051 380.701 114.572C380.701 111.686 380.479 109.278 380.049 107.349C379.617 105.416 378.984 103.999 378.186 103.062C377.401 102.141 376.447 101.67 375.304 101.629C374.14 101.586 372.735 101.989 371.08 102.915Z" fill="white" stroke="white"/>
<path d="M399.832 104.244L399.83 104.245C396.544 106.975 393.905 111.931 392.393 117.524C390.883 123.108 390.52 129.24 391.706 134.265C392.36 136.939 393.201 138.821 394.14 139.968C395.064 141.097 396.045 141.479 397.059 141.29C398.123 141.092 399.352 140.245 400.676 138.603C401.991 136.973 403.352 134.62 404.695 131.535C406.391 127.575 407.507 121.707 407.85 116.297C408.022 113.596 408 111.027 407.766 108.885C407.53 106.722 407.086 105.069 406.465 104.138L406.465 104.138L406.461 104.132C405.886 103.24 405.431 102.615 405.011 102.213C404.604 101.823 404.271 101.683 403.93 101.683C403.561 101.683 403.087 101.846 402.402 102.276C401.723 102.702 400.897 103.352 399.832 104.244Z" fill="white" stroke="white"/>
<path d="M340.179 105.353L340.178 105.353C338.08 106.292 335.775 108.164 333.614 110.652C331.458 113.135 329.47 116.203 327.993 119.498C326.539 122.741 325.936 127.463 326.136 131.984C326.336 136.52 327.338 140.715 328.976 142.954C330.14 144.534 331.44 145.542 332.802 146.041C334.161 146.539 335.618 146.544 337.128 146.057C340.169 145.075 343.427 142.087 346.336 137.124C349.342 131.962 350.993 125.566 351.22 119.792C351.449 113.987 350.235 108.957 347.681 106.402C346.87 105.591 346.274 105.011 345.758 104.613C345.249 104.221 344.854 104.037 344.454 103.981C344.046 103.925 343.57 103.992 342.882 104.223C342.191 104.455 341.337 104.832 340.179 105.353Z" fill="white" stroke="white"/>
<path d="M425.041 111.264L425.042 111.264L425.035 111.273C420.022 119.022 417.755 127.664 418.549 135.831L418.549 135.831L418.55 135.838C418.72 137.883 419.061 139.75 419.496 141.238C419.938 142.751 420.457 143.797 420.939 144.279C421.375 144.715 421.677 144.985 421.928 145.129C422.147 145.255 422.286 145.262 422.439 145.21C422.64 145.142 422.917 144.951 423.339 144.524C423.752 144.105 424.256 143.511 424.919 142.704C426.251 141.066 427.545 138.512 428.691 135.479C429.834 132.455 430.817 128.988 431.54 125.555C432.262 122.12 432.722 118.73 432.823 115.857C432.925 112.961 432.659 110.68 432.004 109.391C431.407 108.283 430.879 107.526 430.386 107.08C429.909 106.65 429.512 106.547 429.118 106.637C428.675 106.739 428.125 107.106 427.427 107.888C426.738 108.66 425.958 109.774 425.041 111.264Z" fill="white" stroke="white"/>
<path d="M317.713 130.287L317.713 130.287L317.713 130.281C318.106 127.478 317.827 123.738 317.114 120.317C316.759 118.611 316.298 116.997 315.767 115.631C315.234 114.262 314.643 113.176 314.04 112.491C311.854 110.21 307.547 110.111 303.629 112.685C298.618 116.008 294.936 121.46 293.063 127.504C291.191 133.547 291.142 140.136 293.337 145.713C294.359 148.21 295.439 149.842 296.762 150.858C298.073 151.865 299.681 152.31 301.856 152.31C303.29 152.31 304.914 151.64 306.592 150.404C308.263 149.173 309.945 147.41 311.485 145.302C314.568 141.082 317.034 135.545 317.713 130.287Z" fill="white" stroke="white"/>
<path d="M441.696 141.335L441.696 141.339C441.353 144.996 441.472 148.106 441.96 150.282C442.204 151.373 442.534 152.192 442.917 152.728C443.294 153.255 443.684 153.461 444.077 153.461C444.133 153.461 444.252 153.434 444.447 153.285C444.637 153.14 444.859 152.909 445.107 152.583C445.603 151.932 446.154 150.97 446.734 149.761C447.891 147.348 449.124 144.026 450.236 140.425C451.347 136.827 452.331 132.965 452.995 129.476C453.661 125.976 453.995 122.893 453.828 120.833C453.715 119.499 453.512 118.524 453.238 117.876C452.962 117.222 452.663 117.008 452.413 116.965C452.132 116.916 451.685 117.034 451.025 117.556C450.381 118.064 449.619 118.89 448.737 120.056C444.895 125.142 442.497 132.067 441.696 141.335Z" fill="white" stroke="white"/>
<path d="M265.104 122.665L265.104 122.665L265.096 122.672C257.449 129.082 254.836 141.506 259.127 151.107C261.49 156.283 265.037 158.472 268.637 158.086C272.286 157.694 276.23 154.638 279.302 148.777L279.303 148.776C280.982 145.585 281.866 141.178 281.923 136.751C281.98 132.323 281.209 127.946 279.643 124.816C278.598 122.724 277.956 121.693 277.112 121.1C276.275 120.513 275.175 120.312 273.03 120.138C271.21 120.025 269.901 120.087 268.721 120.449C267.547 120.809 266.456 121.481 265.104 122.665Z" fill="white" stroke="white"/>
<path d="M231.832 128.881L231.827 128.882C229.014 129.477 226.379 131.689 224.435 134.886C222.497 138.075 221.284 142.188 221.284 146.475C221.284 152.584 223.405 157.597 226.599 160.639C229.78 163.669 234.041 164.764 238.453 163.054L238.461 163.051L238.47 163.048C238.746 162.952 239.082 162.729 239.465 162.354C239.844 161.983 240.244 161.489 240.653 160.89C241.471 159.692 242.299 158.115 243.039 156.372C244.523 152.874 245.619 148.798 245.619 145.899C245.619 140.825 243.87 136.159 241.255 132.971C238.636 129.777 235.213 128.129 231.832 128.881Z" fill="white" stroke="white"/>
<path d="M1172 129.314C1156.45 131.387 1139.06 136.8 1127.55 142.905C1098.07 158.568 1081.6 182.64 1073.88 220.993C1070.2 239.766 1070.08 275.355 1073.88 294.013C1082.29 336.397 1101.64 362.887 1135.15 378.436C1172.23 395.597 1234.53 395.021 1270.46 377.054C1307.77 358.511 1327.46 321.885 1329.42 267.869C1332.19 190.702 1303.51 146.014 1242.25 132.078C1220.94 127.241 1194.34 126.204 1172 129.314ZM1217.26 192.314C1233.72 199.801 1240.98 214.197 1243.51 244.719C1245.47 267.869 1242.59 293.668 1236.6 306.567C1230.5 319.697 1223.13 325.801 1209.77 328.565C1195.15 331.675 1181.44 327.989 1172.81 318.776C1161.17 306.337 1156.91 289.867 1156.91 257.618C1157.03 216.04 1166.93 195.539 1190.08 189.665C1197.33 187.938 1210.35 189.089 1217.26 192.314Z" fill="white"/>
<path d="M1519.78 128.162C1499.28 131.963 1488 136.34 1475.44 145.208C1468.65 150.161 1458.29 162.254 1453.79 170.662C1452.07 174.002 1451.95 173.196 1451.84 154.768V135.534H1413.26H1374.68V259.346V383.158H1416.14H1457.59V318.66C1457.59 245.755 1457.13 250.477 1467.15 230.092C1477.29 209.591 1491.57 197.728 1506.08 197.728C1520.01 197.728 1527.15 205.675 1530.14 224.218C1530.84 228.709 1531.3 261.534 1531.3 307.373V383.158H1572.75H1614.21V302.075C1614.21 218.113 1613.4 198.534 1609.6 183.1C1602.7 155.804 1584.38 136.34 1559.97 130.351C1552.72 128.623 1525.42 127.126 1519.78 128.162Z" fill="white"/>
<path d="M1757.01 128.162C1719.01 132.884 1697.47 140.947 1681.46 156.841C1669.72 168.473 1664.65 179.069 1663.96 194.157L1663.5 205.214L1702.42 212.47C1723.96 216.501 1742.27 220.071 1743.3 220.302C1744.92 220.762 1745.26 219.38 1745.72 211.088C1746.18 202.68 1746.64 200.837 1749.41 197.267C1755.17 189.78 1766.68 186.21 1778.54 188.514C1792.36 191.047 1797.66 199.57 1798.93 221.568L1799.73 234.583H1790.4C1768.18 234.583 1735.59 239.305 1717.85 244.949C1698.39 251.283 1677.78 264.298 1669.6 275.355C1659.47 288.945 1655.67 300.808 1655.67 318.315C1655.67 339.276 1661.2 353.328 1675.02 367.033C1688.14 380.163 1702.88 386.959 1725.34 390.068C1743.77 392.717 1761.73 390.068 1777.16 382.697C1787.53 377.629 1795.01 371.756 1802.96 362.426C1806.41 358.28 1809.52 354.825 1809.98 354.595C1810.44 354.479 1811.71 356.553 1812.98 359.202C1816.09 366.227 1827.14 376.708 1835.78 380.854C1847.98 386.613 1856.51 387.995 1877 387.534C1886.91 387.419 1895.31 386.843 1895.66 386.498C1896.35 385.807 1910.17 324.995 1910.17 322.691C1910.17 321.655 1908.79 321.54 1905.33 322.116C1898.19 323.498 1890.59 321.77 1887.48 318.2C1882.65 312.556 1882.3 308.755 1881.38 253.587C1880.46 196.806 1879.88 191.623 1873.78 176.535C1863.42 150.967 1845.91 137.491 1814.36 130.811C1803.88 128.623 1767.37 126.895 1757.01 128.162ZM1799.27 292.976C1798.58 307.949 1796.62 314.053 1790.06 320.849C1782.57 328.565 1774.74 331.675 1762.19 331.79C1753.78 331.905 1751.14 331.445 1747.91 329.602C1741.23 325.686 1739.27 321.885 1738.81 312.556C1738.47 304.955 1738.7 303.803 1741.92 298.85C1743.77 295.856 1747.57 292.055 1750.21 290.327C1758.85 284.914 1775.55 281.229 1793.74 280.768L1799.96 280.653L1799.27 292.976Z" fill="white"/>
<path d="M460.008 156.989L460.008 156.989L460.007 156.993C459.807 159.69 459.773 161.769 459.888 163.238C459.946 163.974 460.041 164.537 460.162 164.941C460.289 165.363 460.42 165.526 460.488 165.574C460.51 165.59 460.52 165.59 460.53 165.59C460.548 165.589 460.598 165.583 460.687 165.533C460.876 165.427 461.14 165.183 461.473 164.738C462.132 163.858 462.941 162.361 463.888 160.21L463.888 160.209C466.52 154.257 468.814 146.633 470.104 140.498C470.749 137.428 471.138 134.755 471.198 132.861C471.228 131.908 471.173 131.193 471.046 130.733C470.983 130.502 470.912 130.376 470.859 130.316C470.827 130.279 470.811 130.275 470.801 130.275C470.8 130.275 470.775 130.279 470.719 130.301C470.652 130.328 470.562 130.374 470.452 130.442C470.23 130.578 469.957 130.783 469.653 131.046C469.045 131.571 468.347 132.296 467.733 133.078C465.885 135.43 464.093 139.225 462.691 143.548C461.291 147.863 460.292 152.659 460.008 156.989ZM470.794 130.275C470.797 130.275 470.799 130.275 470.8 130.275C470.799 130.275 470.798 130.275 470.797 130.275C470.796 130.275 470.795 130.275 470.794 130.275Z" fill="white" stroke="white"/>
<path d="M202.23 140.143L202.23 140.143C204.204 142.174 205.543 144.217 206.393 146.586C207.245 148.961 207.616 151.692 207.616 155.113C207.616 159.905 206.787 163.541 205.274 165.962C203.78 168.353 201.606 169.585 198.788 169.585C193.061 169.585 188.409 164.573 186.293 158.195C184.182 151.832 184.698 144.39 189.018 139.792L202.23 140.143ZM202.23 140.143L202.225 140.138M202.23 140.143L202.225 140.138M202.225 140.138C198.491 136.184 192.491 136.102 189.019 139.792L202.225 140.138Z" fill="white" stroke="white"/>
<path d="M151.587 145.556L151.58 145.563L151.573 145.57C150.336 146.75 149.654 147.659 149.258 148.941C148.851 150.256 148.733 151.999 148.733 154.883C148.733 157.578 148.878 159.455 149.307 161.09C149.734 162.717 150.452 164.133 151.642 165.89L151.642 165.89L151.645 165.894C153.648 168.928 155.423 171.002 157.21 172.318C158.981 173.622 160.777 174.193 162.859 174.193C165.199 174.193 166.838 173.389 167.924 171.714C169.038 169.995 169.614 167.292 169.614 163.406C169.614 156.256 167.692 151.219 163.326 147.188L163.324 147.187C160.819 144.852 158.668 143.64 156.779 143.401C154.929 143.166 153.234 143.854 151.587 145.556Z" fill="white" stroke="white"/>
<path d="M15.2363 161.553L15.2362 161.553L15.2322 161.545C13.5263 157.905 10.7872 153.793 8.17218 150.592C6.865 148.992 5.5991 147.632 4.51963 146.677C3.97923 146.199 3.4962 145.832 3.08648 145.587C2.6624 145.334 2.37525 145.247 2.21126 145.247H2.21123C2.20527 145.247 2.14486 145.247 2.03416 145.376C1.92215 145.506 1.80034 145.724 1.68933 146.037C1.46871 146.66 1.32935 147.551 1.32935 148.548C1.32935 150.284 2.08552 152.905 3.34022 155.91C4.58692 158.896 6.29888 162.2 8.15283 165.278C10.0077 168.358 11.9955 171.197 13.7895 173.259C14.6875 174.292 15.5256 175.116 16.2641 175.678C17.0218 176.255 17.5987 176.496 17.9881 176.496C18.1209 176.496 18.2287 176.448 18.3377 176.311C18.4613 176.154 18.5792 175.885 18.6598 175.473C18.8203 174.652 18.8 173.439 18.5872 171.956C18.1634 169.004 17 165.138 15.2363 161.553Z" fill="white" stroke="white"/>
<path d="M114.204 149.303L114.204 149.303L114.193 149.31C113.227 149.954 112.678 150.591 112.346 151.586C112 152.623 111.882 154.075 111.882 156.38C111.882 159.962 112.365 162.886 113.498 165.573C114.632 168.26 116.43 170.742 119.106 173.418L119.106 173.418L119.11 173.422C121.484 175.853 123.929 177.248 125.98 177.613C127.001 177.794 127.909 177.718 128.668 177.407C129.42 177.098 130.054 176.547 130.52 175.72C132.043 172.832 132.046 168.377 130.822 163.824C129.602 159.284 127.194 154.766 124.052 151.791C121.945 149.798 120.18 148.688 118.608 148.315C117.071 147.95 115.661 148.277 114.204 149.303Z" fill="white" stroke="white"/>
<path d="M38.2053 151.826C38.2158 152.587 38.2931 153.597 38.4083 154.951C38.9173 159.919 41.3553 165.918 44.3647 170.683C45.8678 173.062 47.4996 175.111 49.082 176.559C50.6835 178.024 52.1543 178.8 53.3418 178.8C53.9753 178.8 54.3984 178.769 54.6988 178.679C54.9664 178.598 55.1195 178.477 55.2363 178.266C55.3714 178.022 55.4725 177.629 55.5321 176.971C55.591 176.321 55.6057 175.471 55.6057 174.347C55.6057 169.762 53.1852 163.61 49.9973 158.577C48.4084 156.069 46.647 153.868 44.9342 152.3C43.1998 150.714 41.6004 149.855 40.3288 149.855C39.6236 149.855 39.1674 149.872 38.8508 149.958C38.5827 150.03 38.4587 150.138 38.3696 150.344C38.2565 150.607 38.1946 151.049 38.2053 151.826Z" fill="white" stroke="white"/>
<path d="M76.4304 150.685L76.4305 150.686L76.421 150.692C75.3705 151.392 74.7307 152.559 74.5539 154.314C74.3758 156.081 74.6747 158.401 75.4729 161.31C77.0062 166.476 79.9041 171.418 83.0345 174.86C84.6004 176.582 86.208 177.911 87.7121 178.709C89.2229 179.51 90.5667 179.745 91.6533 179.399C92.8083 179.029 93.5405 177.843 93.7684 175.884C93.994 173.945 93.6961 171.407 92.9495 168.662C91.4553 163.169 88.2142 157.019 84.1067 153.417C81.9697 151.569 80.5406 150.54 79.3922 150.144C78.8354 149.952 78.359 149.915 77.9045 150.001C77.444 150.088 76.97 150.308 76.4304 150.685Z" fill="white" stroke="white"/>
<path d="M350.331 206.732L350.331 206.732L350.333 206.736C351.931 210.274 353.628 212.873 355.296 214.56C356.969 216.252 358.559 216.978 359.958 216.909C361.341 216.84 362.69 215.985 363.871 214.168C365.054 212.348 366.031 209.614 366.658 205.936L366.659 205.933C367.51 201.108 367.312 195.761 366.274 190.996C365.233 186.219 363.362 182.092 360.924 179.653C359.462 178.191 358.27 177.593 357.115 177.654C355.941 177.716 354.644 178.464 352.995 180.114C350.402 182.707 348.727 187.184 348.215 192.15C347.704 197.104 348.361 202.453 350.331 206.732Z" fill="white" stroke="white"/>
<path d="M390.661 213.736L390.664 213.73L390.668 213.723C391.702 211.872 392.39 208.316 392.62 204.193C392.849 200.094 392.619 195.529 391.88 191.719L391.88 191.719L391.879 191.714C391.279 188.457 390.496 185.706 389.596 183.515C388.694 181.319 387.687 179.716 386.655 178.724C385.63 177.739 384.625 177.395 383.675 177.586C382.701 177.78 381.64 178.563 380.581 180.152C379.971 181.081 379.44 182.605 379.024 184.524C378.611 186.43 378.323 188.679 378.173 191.022C377.872 195.716 378.133 200.721 379.033 204.043C380.396 208.81 382.796 212.476 385.135 214.292C386.307 215.202 387.409 215.607 388.326 215.535C389.208 215.465 390.031 214.943 390.661 213.736Z" fill="white" stroke="white"/>
<path d="M406.423 181.447C404.567 186.059 404.158 193.017 404.93 199.511C405.316 202.751 405.992 205.852 406.917 208.463C407.844 211.082 409.005 213.161 410.33 214.406C410.963 214.982 411.443 215.405 411.832 215.699C412.228 215.998 412.478 216.12 412.651 216.155C412.783 216.181 412.901 216.163 413.079 216.043C413.282 215.906 413.522 215.661 413.867 215.26C414.112 214.954 414.359 214.452 414.59 213.75C414.82 213.052 415.023 212.191 415.194 211.2C415.538 209.219 415.753 206.754 415.824 204.106C415.967 198.805 415.536 192.838 414.458 188.638C413.943 186.635 413.342 184.662 412.786 183.079C412.508 182.287 412.242 181.597 412.006 181.052C411.769 180.507 411.576 180.141 411.442 179.957C410.482 178.844 409.55 178.557 408.771 178.774C407.951 179.002 407.088 179.84 406.423 181.447Z" fill="white" stroke="white"/>
<path d="M338.794 207.872L338.794 207.871C339.583 204.265 339.531 199.58 338.832 195.113C338.132 190.641 336.795 186.462 335.067 183.84C331.998 179.349 326.478 178.513 322.579 182.085C318.691 185.753 316.866 191.12 316.866 199.107C316.923 204.843 318.457 210.164 320.823 214.038C323.199 217.928 326.347 220.262 329.609 220.262C331.266 220.262 333.18 218.959 334.91 216.661C336.619 214.391 338.059 211.263 338.794 207.872Z" fill="white" stroke="white"/>
<path d="M305.672 190.239L305.671 190.237C303.784 186.52 301.918 184.283 299.881 183.291C297.882 182.317 295.606 182.494 292.749 183.894C289.425 185.543 287.169 188.749 285.902 192.705C284.635 196.659 284.373 201.318 285.005 205.777C285.637 210.239 287.158 214.46 289.418 217.552C291.673 220.64 294.633 222.566 298.171 222.566C300.429 222.566 302.437 221.415 304.096 219.412C305.759 217.405 307.046 214.57 307.833 211.302C309.408 204.76 308.948 196.622 305.672 190.239Z" fill="white" stroke="white"/>
<path d="M429.012 188.302L429.013 188.302L429.01 188.312C428.15 191.177 427.733 193.087 427.663 195.11C427.593 197.142 427.872 199.314 428.448 202.712L428.448 202.714C429.193 207.239 430.25 211.114 431.396 213.845C431.97 215.214 432.557 216.272 433.123 216.978C433.705 217.706 434.181 217.959 434.519 217.959C434.798 217.959 435.184 217.708 435.573 216.765C435.941 215.872 436.222 214.556 436.41 212.924C436.785 209.669 436.776 205.29 436.453 200.844C436.131 196.4 435.497 191.917 434.633 188.455C434.201 186.721 433.716 185.264 433.193 184.201C432.932 183.669 432.669 183.252 432.41 182.95C432.149 182.646 431.916 182.488 431.719 182.425L431.703 182.42C431.676 182.429 431.615 182.46 431.511 182.557C431.308 182.747 431.054 183.092 430.769 183.614C430.204 184.647 429.583 186.248 429.012 188.302ZM431.719 182.417C431.719 182.416 431.716 182.416 431.711 182.418C431.716 182.418 431.719 182.417 431.719 182.417Z" fill="white" stroke="white"/>
<path d="M257.205 188.825L257.204 188.826C253.166 191.281 251.14 196.843 251.283 203.086C251.424 209.306 253.722 216.032 258.112 220.648L258.113 220.649C260.596 223.273 263.038 224.591 265.235 224.877C267.417 225.162 269.421 224.439 271.079 222.849C274.424 219.64 276.361 212.87 275.104 203.901C274.596 200.286 273.239 196.665 271.459 193.756C269.671 190.831 267.503 188.7 265.415 187.949C265.327 187.919 265.24 187.889 265.156 187.86C264.102 187.5 263.328 187.235 262.694 187.068C262.016 186.888 261.54 186.832 261.101 186.88C260.662 186.928 260.218 187.085 259.609 187.402C259.068 187.684 258.428 188.076 257.57 188.602C257.452 188.674 257.33 188.748 257.205 188.825Z" fill="white" stroke="white"/>
<path d="M453.183 221.445L453.191 221.453L453.198 221.461C453.348 221.624 453.471 221.743 453.574 221.824C453.642 221.877 453.689 221.905 453.719 221.92C453.735 221.902 453.756 221.874 453.783 221.829C453.912 221.613 454.057 221.205 454.222 220.516C454.383 219.843 454.553 218.953 454.754 217.807C455.089 215.272 454.865 209.202 454.347 203.198C454.088 200.203 453.758 197.245 453.393 194.779C453.025 192.296 452.628 190.363 452.248 189.386L452.248 189.386L452.245 189.377C451.861 188.334 451.38 187.954 451.036 187.898C450.721 187.847 450.226 188.03 449.69 188.884C449.617 189.016 449.509 189.346 449.386 189.898C449.265 190.439 449.141 191.135 449.02 191.942C448.777 193.555 448.548 195.587 448.376 197.65C448.093 201.738 448.604 207.016 449.548 211.635C450.02 213.943 450.596 216.074 451.23 217.799C451.87 219.543 452.545 220.807 453.183 221.445Z" fill="white" stroke="white"/>
<path d="M219.619 216.047L219.619 216.047L219.621 216.051C220.844 218.553 223.115 221.059 225.618 222.94C228.136 224.832 230.792 226.021 232.76 226.021C235.236 226.021 237.038 225.258 238.319 223.698C239.622 222.113 240.442 219.64 240.784 216.11C241.464 208.168 239.193 200.832 234.241 195.654L234.241 195.654L234.237 195.65C231.865 193.108 229.453 191.69 227.238 191.325C225.045 190.964 222.987 191.624 221.252 193.359C219.008 195.603 217.65 199.385 217.338 203.595C217.027 207.795 217.764 212.338 219.619 216.047Z" fill="white" stroke="white"/>
<path d="M15.9194 209.795L15.9193 209.794C14.5067 206.63 11.6892 202.553 8.89776 199.26C7.50417 197.616 6.12967 196.183 4.9553 195.165C4.36739 194.655 3.84014 194.259 3.39374 193.993C2.93081 193.718 2.61794 193.621 2.44158 193.621C2.18352 193.621 1.92496 193.756 1.70236 194.248C1.47166 194.758 1.32935 195.568 1.32935 196.691C1.32935 198.686 2.12226 201.394 3.42785 204.346C4.72726 207.283 6.51078 210.409 8.43927 213.224C10.3697 216.041 12.4317 218.526 14.2814 220.193C15.2078 221.028 16.0619 221.64 16.8035 221.991C17.5491 222.344 18.104 222.398 18.4945 222.255C18.9065 222.079 19.1724 221.801 19.3175 221.356C19.4733 220.878 19.4976 220.18 19.3236 219.178C18.9756 217.173 17.8776 214.172 15.9194 209.795Z" fill="white" stroke="white"/>
<path d="M197.853 199.573L197.853 199.573L197.848 199.567C195.172 196.72 192.73 195.169 190.566 194.779C188.449 194.397 186.513 195.115 184.766 197.024C183.287 198.718 182.705 200.854 182.705 206.25C182.705 209.235 182.85 211.225 183.336 213.031C183.821 214.832 184.654 216.481 186.083 218.768C189.266 223.77 193.206 226.859 196.615 227.78C198.314 228.239 199.855 228.155 201.118 227.542C202.375 226.931 203.419 225.765 204.074 223.937C206.884 215.728 204.647 206.593 197.853 199.573Z" fill="white" stroke="white"/>
<path d="M38.8401 196.584L38.815 196.609L38.8037 196.617C38.7982 196.625 38.7854 196.645 38.7672 196.681C38.7312 196.754 38.6895 196.862 38.6456 197.009C38.5581 197.304 38.4759 197.71 38.4057 198.201C38.2657 199.181 38.1804 200.453 38.1804 201.759C38.1804 206.047 40.7083 212.138 44.0013 217.193C45.641 219.709 47.4502 221.938 49.1918 223.53C50.9582 225.145 52.5634 226.021 53.8027 226.021C54.4177 226.021 54.798 225.996 55.0527 225.91C55.168 225.872 55.2414 225.825 55.2944 225.774C55.3476 225.722 55.4016 225.645 55.4491 225.514C55.5515 225.234 55.6023 224.776 55.5862 224.005C55.5704 223.247 55.4929 222.249 55.3777 220.924C54.6981 214.022 50.839 205.948 45.3808 200.262L45.3786 200.26C43.2982 198.063 41.9144 196.833 40.8949 196.316C40.3989 196.065 40.0355 196.008 39.7459 196.053C39.4577 196.098 39.1678 196.256 38.8401 196.584Z" fill="white" stroke="white"/>
<path d="M148.504 198.852L148.497 198.86L148.49 198.868C148.292 199.088 148.089 199.452 147.899 199.977C147.712 200.497 147.549 201.144 147.416 201.903C147.149 203.421 147.006 205.348 147.006 207.517C147.006 210.504 147.151 212.433 147.621 214.105C148.088 215.769 148.887 217.213 150.257 219.211C152.992 223.143 156.019 226.017 158.798 227.567C161.593 229.127 164.007 229.287 165.673 228.075C166.308 227.611 166.875 226.745 167.318 225.542C167.757 224.349 168.056 222.876 168.19 221.268C168.459 218.047 168.06 214.355 166.885 211.388C164.731 206.001 161.078 201.595 157.458 199.195C155.646 197.995 153.876 197.318 152.328 197.239C150.801 197.161 149.485 197.663 148.504 198.852Z" fill="white" stroke="white"/>
<path d="M74.3259 200.726L74.3259 200.726L74.3246 200.731C73.836 202.632 74.0036 205.13 74.6856 207.885C75.3651 210.63 76.5433 213.582 78.0245 216.367C79.5058 219.152 81.2822 221.754 83.1492 223.803C85.0241 225.861 86.9531 227.321 88.7314 227.887C90.0796 228.31 91.0851 228.113 91.8101 227.54C92.5581 226.948 93.1002 225.885 93.3413 224.397C93.8232 221.422 93.0555 217.009 90.78 212.343L90.778 212.339C87.9257 206.349 84.0627 201.795 80.7485 199.614C79.0805 198.515 77.6313 198.07 76.5526 198.236C76.0268 198.317 75.5782 198.544 75.2104 198.932C74.8376 199.326 74.527 199.908 74.3259 200.726Z" fill="white" stroke="white"/>
<path d="M112.126 199.413L112.123 199.415C110.298 201.778 109.928 205.425 110.947 209.572C111.961 213.703 114.337 218.239 117.861 222.275C120.969 225.786 123.346 227.801 125.251 228.53C126.184 228.888 126.977 228.926 127.684 228.704C128.398 228.48 129.084 227.972 129.764 227.129L129.765 227.127C130.675 226.009 131.137 224.372 131.156 222.372C131.175 220.377 130.753 218.069 129.952 215.666C128.35 210.858 125.257 205.753 121.298 202.131C118.956 200.075 117.012 198.871 115.47 198.455C114.706 198.249 114.065 198.243 113.529 198.4C112.998 198.555 112.53 198.882 112.126 199.413Z" fill="white" stroke="white"/>
<path d="M3.935 241.936L3.92317 241.929L3.91169 241.923C3.04743 241.404 2.5978 241.308 2.34691 241.363C2.1467 241.407 1.91748 241.591 1.64014 242.253C1.41226 242.872 1.36899 243.799 1.52792 245.002C1.68588 246.198 2.03564 247.611 2.53927 249.162C3.54615 252.263 5.15204 255.867 6.99874 259.296C8.84585 262.726 10.9231 265.961 12.8652 268.331C13.8371 269.517 14.7636 270.472 15.5994 271.127C16.4514 271.793 17.1383 272.091 17.6426 272.091C17.9171 272.091 18.1062 272.016 18.247 271.901C18.3942 271.78 18.5284 271.581 18.6282 271.272C18.8325 270.637 18.8521 269.66 18.6699 268.386C18.3083 265.858 17.1905 262.406 15.629 258.796C14.0703 255.191 12.0836 251.462 10.0055 248.382C7.91316 245.28 5.77579 242.91 3.935 241.936Z" fill="white" stroke="white"/>
<path d="M398.391 264.861C397.827 262.504 396.922 260.178 395.487 257.022C392.501 250.705 389.52 246.45 386.956 244.482C385.676 243.499 384.571 243.14 383.661 243.28C382.767 243.417 381.914 244.057 381.18 245.417C380.83 246.067 380.576 247.214 380.476 248.81C380.377 250.388 380.433 252.346 380.662 254.573L380.662 254.574C381.286 260.875 383.988 267.768 387.322 272.969C388.988 275.568 390.798 277.722 392.561 279.163C394.339 280.615 395.989 281.279 397.363 281.08C397.901 280.995 398.223 280.899 398.448 280.74C398.652 280.596 398.832 280.357 398.971 279.845C399.113 279.32 399.199 278.559 399.238 277.427C399.277 276.302 399.27 274.844 399.241 272.944C399.184 269.623 398.955 267.216 398.391 264.861Z" fill="white" stroke="white"/>
<path d="M407.375 246.982L407.375 246.982L407.374 246.991C406.931 249.595 407.343 253.546 408.388 257.727C409.43 261.895 411.084 266.224 413.069 269.571C414.482 271.946 416.671 274.62 418.751 276.7C419.79 277.74 420.791 278.62 421.644 279.236C422.071 279.545 422.451 279.78 422.773 279.936C423.105 280.097 423.332 280.153 423.464 280.153C423.667 280.153 423.823 280.095 423.955 279.992C424.094 279.884 424.232 279.704 424.352 279.424C424.596 278.855 424.725 277.976 424.715 276.811C424.696 274.496 424.135 271.257 423.168 267.638C421.234 260.402 417.713 251.797 413.843 246.274C413 245.093 412.196 244.264 411.468 243.753C410.738 243.24 410.125 243.077 409.638 243.141C409.165 243.203 408.709 243.494 408.307 244.118C407.901 244.75 407.571 245.696 407.375 246.982Z" fill="white" stroke="white"/>
<path d="M447.255 278.509L447.267 278.501L447.279 278.494C447.333 278.463 447.428 278.369 447.505 278.1C447.581 277.836 447.622 277.462 447.615 276.974C447.601 276.002 447.4 274.682 447.041 273.111C446.325 269.974 445.003 265.928 443.41 261.845C441.818 257.764 439.963 253.663 438.187 250.417C437.299 248.793 436.435 247.392 435.64 246.317C434.835 245.23 434.141 244.533 433.599 244.241C433.142 244.014 432.827 243.883 432.594 243.833C432.378 243.787 432.299 243.822 432.248 243.859C432.166 243.917 432.044 244.065 431.896 244.436C431.752 244.796 431.608 245.296 431.437 245.98C431.002 248.174 431.298 251.423 432.24 255.149C433.18 258.866 434.748 263.003 436.803 266.943C438.568 270.188 440.903 273.376 443.002 275.602C444.054 276.719 445.028 277.573 445.827 278.076C446.227 278.328 446.558 278.475 446.814 278.533C447.068 278.591 447.193 278.551 447.255 278.509Z" fill="white" stroke="white"/>
<path d="M354.269 245.986L354.269 245.986L354.261 245.993C352.812 247.443 351.912 249.669 351.546 252.399C351.181 255.123 351.354 258.302 352.009 261.595C353.318 268.187 356.534 275.143 361.055 279.723C363.517 282.128 365.478 283.454 367.138 283.852C367.955 284.048 368.697 284.019 369.401 283.782C370.11 283.543 370.809 283.082 371.519 282.373C372.701 281.191 373.331 278.956 373.401 276.005C373.469 273.084 372.985 269.575 372.065 265.977C370.218 258.76 366.652 251.331 362.445 247.628L362.442 247.625C360.248 245.662 358.76 244.693 357.561 244.476C356.45 244.275 355.487 244.712 354.269 245.986Z" fill="white" stroke="white"/>
<path d="M453.096 250.534C453.49 253.797 454.99 258.175 457.009 262.398C459.026 266.62 461.534 270.63 463.904 273.17C464.858 274.181 465.689 274.96 466.398 275.526C467.114 276.097 467.68 276.43 468.105 276.578C468.532 276.727 468.713 276.656 468.79 276.596C468.889 276.519 469.024 276.304 469.057 275.784C469.122 274.757 468.759 273.012 467.894 270.604C467.037 268.216 465.709 265.236 463.902 261.766C461.573 257.336 459.607 253.813 457.987 251.178C456.358 248.529 455.104 246.819 454.201 245.977C453.732 245.54 453.452 245.428 453.33 245.423C453.296 245.422 453.281 245.428 453.259 245.447C453.226 245.475 453.166 245.548 453.104 245.71C452.977 246.042 452.896 246.6 452.89 247.429C452.885 248.245 452.953 249.279 453.096 250.534Z" fill="white" stroke="white"/>
<path d="M38.8482 247.252L38.8413 247.259L38.834 247.266C38.5183 247.571 38.2807 248.109 38.1721 248.919C38.0647 249.719 38.0921 250.724 38.2462 251.887C38.5543 254.211 39.3578 257.087 40.4938 260.06C41.6287 263.029 43.0879 266.076 44.6959 268.74C46.3079 271.411 48.052 273.669 49.7474 275.086L49.7474 275.086L49.7499 275.088C51.8082 276.833 53.3274 277.48 54.3166 277.432C54.7827 277.41 55.1363 277.234 55.4085 276.922C55.692 276.598 55.9132 276.096 56.03 275.389C56.2644 273.968 56.0521 271.877 55.3099 269.257C54.571 266.649 53.3191 263.557 51.5182 260.155L51.5182 260.155L51.5161 260.151C48.9972 255.285 46.2631 251.448 43.8829 249.153C42.6883 248 41.6171 247.27 40.7372 246.968C39.8794 246.673 39.2781 246.802 38.8482 247.252Z" fill="white" stroke="white"/>
<path d="M341.363 286.619L341.365 286.617C343.101 285.043 344.246 282.638 344.81 279.703C345.375 276.773 345.353 273.352 344.791 269.804C343.667 262.699 340.392 255.172 335.47 250.136L335.47 250.135C333.268 247.877 331.191 246.763 329.251 246.657C327.329 246.553 325.419 247.433 323.527 249.435C322.352 250.723 321.721 251.655 321.359 253.251C320.985 254.9 320.896 257.26 320.896 261.419C320.896 265.509 321.013 267.994 321.447 270.024C321.877 272.036 322.624 273.624 323.938 275.909C326.846 280.813 330.275 284.425 333.464 286.328C336.667 288.239 339.474 288.355 341.363 286.619Z" fill="white" stroke="white"/>
<path d="M297.033 285.028L297.034 285.028C300.063 288.172 302.715 289.96 305.05 290.503C307.333 291.034 309.379 290.389 311.291 288.477C312.877 286.891 313.839 284.342 314.205 281.215C314.57 278.1 314.335 274.473 313.587 270.805C312.087 263.446 308.555 256.064 303.85 252.368L303.85 252.367C302.043 250.944 299.703 250.197 297.51 250.142C295.308 250.087 293.342 250.728 292.207 251.965C288.767 255.796 287.538 261.532 288.402 267.611C289.266 273.684 292.213 280.036 297.033 285.028Z" fill="white" stroke="white"/>
<path d="M90.0777 282.052L90.0777 282.052L90.0853 282.056C91.1381 282.625 91.955 282.962 92.5857 283.084C93.2047 283.204 93.5746 283.105 93.8295 282.891C94.1096 282.655 94.3563 282.194 94.5232 281.361C94.688 280.539 94.76 279.433 94.76 278.004C94.76 273.868 92.8494 268.488 90.0068 263.659C87.1622 258.827 83.4511 254.661 79.9477 252.881L79.9476 252.881L79.9407 252.877C78.8967 252.326 78.1399 251.927 77.5539 251.674C76.9562 251.416 76.6233 251.351 76.4047 251.377C76.2286 251.398 76.0552 251.488 75.8061 251.805C75.5454 252.136 75.2657 252.632 74.8565 253.363C74.1053 254.821 74.0432 257.016 74.596 259.653C75.1456 262.275 76.2851 265.247 77.8244 268.183C80.9129 274.075 85.545 279.701 90.0777 282.052Z" fill="white" stroke="white"/>
<path d="M279.644 288.492L279.643 288.492L279.647 288.485C281.975 283.994 281.699 277.184 279.558 270.689C277.42 264.202 273.474 258.192 268.662 255.282L268.659 255.28C265.199 253.16 261.174 252.999 258.743 254.792C255.331 257.45 254.109 262.742 255.006 268.745C255.898 274.722 258.876 281.247 263.636 286.179C266.065 288.665 267.511 290.019 268.861 290.769C270.174 291.498 271.423 291.67 273.527 291.67C275.613 291.67 276.758 291.547 277.57 291.123C278.354 290.712 278.9 289.979 279.644 288.492Z" fill="white" stroke="white"/>
<path d="M122.547 282.359L122.545 282.358L122.545 282.358C118.453 278.606 115.183 273.856 113.224 269.284C111.255 264.69 110.652 260.378 111.735 257.449C112.094 256.511 112.504 255.856 112.967 255.434C113.418 255.022 113.939 254.811 114.578 254.792C115.233 254.774 116.031 254.958 117.012 255.383C117.989 255.807 119.119 256.458 120.43 257.341L122.547 282.359ZM122.547 282.359C125.704 285.287 128.256 286.804 130.095 287.069C130.991 287.197 131.684 287.025 132.214 286.609C132.757 286.183 133.196 285.451 133.468 284.335L133.468 284.335M122.547 282.359L133.468 284.335M133.468 284.335L133.47 284.329M133.468 284.335L133.47 284.329M133.47 284.329C133.903 282.65 133.81 280.456 133.274 277.991M133.47 284.329L133.274 277.991M133.274 277.991C132.741 275.535 131.777 272.851 130.509 270.216M133.274 277.991L130.509 270.216M130.509 270.216C127.967 264.932 124.245 259.922 120.431 257.342L130.509 270.216Z" fill="white" stroke="white"/>
<path d="M220.823 267.282L220.823 267.282V267.293C220.823 271.495 221.532 275.048 223.05 278.296C224.57 281.546 226.912 284.517 230.217 287.538C234.107 291.028 237.473 292.709 240.078 292.736C241.362 292.749 242.466 292.362 243.387 291.577C244.316 290.786 245.087 289.566 245.644 287.868L245.644 287.868L245.645 287.864C247.259 283.077 246.326 276.765 243.691 270.954C241.059 265.15 236.778 259.953 231.838 257.37L231.836 257.37C229.682 256.235 227.998 255.767 226.583 255.885C225.193 256.001 223.979 256.691 222.771 258.064C221.292 259.755 220.708 261.887 220.823 267.282Z" fill="white" stroke="white"/>
<path d="M149.111 259.622C147.682 261.792 147.716 265.117 148.837 268.913C149.949 272.682 152.097 276.789 154.699 280.404C157.304 284.022 160.335 287.109 163.191 288.867C166.071 290.64 168.584 290.966 170.37 289.482C170.766 289.152 171.135 288.464 171.412 287.429C171.683 286.413 171.846 285.14 171.888 283.733C171.973 280.918 171.575 277.638 170.676 274.938C169.267 270.767 166.179 266.252 162.761 262.777C161.054 261.042 159.279 259.58 157.609 258.555C155.927 257.524 154.403 256.966 153.185 256.966C151.908 256.966 150.203 257.983 149.111 259.622Z" fill="white" stroke="white"/>
<path d="M185.685 272.93L185.685 272.93L185.686 272.934C186.463 276.155 189.191 280.457 192.469 284.166C194.101 286.011 195.853 287.691 197.538 288.998C199.232 290.312 200.825 291.223 202.141 291.572L202.141 291.572L202.147 291.573C204.044 292.103 205.553 292.091 206.699 291.651C207.83 291.218 208.673 290.344 209.206 289.005C210.292 286.278 210.05 281.698 208.213 275.497L208.212 275.494C207.314 272.406 205.307 268.834 202.87 265.699C200.43 262.559 197.605 259.916 195.106 258.639L195.106 258.639L195.099 258.635C193.27 257.663 191.994 257.188 190.865 257.109C189.761 257.032 188.739 257.331 187.407 258.051C186.876 258.379 186.379 259.031 185.967 259.998C185.557 260.963 185.253 262.189 185.077 263.583C184.725 266.372 184.893 269.764 185.685 272.93Z" fill="white" stroke="white"/>
<path d="M10.9796 297.582L10.9796 297.582L10.9768 297.577C9.73085 295.085 7.34589 291.797 5.78641 290.348L5.78638 290.348L5.7814 290.344C5.14861 289.74 4.65953 289.293 4.26936 288.985C3.86618 288.667 3.62536 288.543 3.48468 288.512C3.42776 288.499 3.40641 288.507 3.40131 288.508C3.39407 288.511 3.36694 288.521 3.31948 288.572C3.20914 288.692 3.0795 288.928 2.90764 289.357C2.69494 289.923 2.58733 290.712 2.59539 291.704C2.60343 292.692 2.72579 293.851 2.9503 295.136C3.39928 297.706 4.25033 300.744 5.37353 303.864C7.62461 310.116 10.9378 316.612 14.2153 320.285C15.0491 321.218 15.7061 321.728 16.193 321.937C16.4304 322.038 16.6012 322.057 16.7199 322.042C16.8304 322.027 16.9291 321.98 17.0262 321.881C17.2445 321.658 17.4444 321.18 17.5401 320.366C17.6332 319.573 17.6182 318.548 17.4908 317.33C16.9804 312.453 14.7004 304.796 10.9796 297.582Z" fill="white" stroke="white"/>
<path d="M475.301 300.311L475.301 300.311L475.303 300.318C476.59 304.571 480.345 309.594 485.01 313.887C489.671 318.177 495.157 321.661 499.827 322.899L499.827 322.899L499.833 322.901C501.383 323.331 502.586 323.611 503.505 323.731C504.443 323.853 504.995 323.793 505.308 323.639C505.558 323.517 505.72 323.3 505.76 322.808C505.801 322.285 505.69 321.54 505.433 320.509L505.433 320.509L505.431 320.503C505.34 320.116 505.067 319.593 504.55 318.92C504.039 318.256 503.318 317.48 502.378 316.59C500.5 314.811 497.783 312.608 494.219 309.963C486.44 304.2 481.154 300.69 478.027 299.247C477.248 298.887 476.626 298.667 476.147 298.568C475.653 298.465 475.389 298.508 475.263 298.572C475.181 298.614 475.092 298.697 475.069 298.969C475.044 299.262 475.107 299.701 475.301 300.311Z" fill="white" stroke="white"/>
<path d="M38.5219 304.202L38.522 304.202L38.523 304.211C39.0871 309.515 42.1232 316.493 45.7593 322.162C47.5737 324.992 49.5218 327.47 51.3598 329.234C52.2789 330.116 53.1601 330.81 53.9733 331.28C54.7909 331.753 55.507 331.981 56.1058 331.981C56.7202 331.981 57.1034 331.956 57.3575 331.874C57.473 331.837 57.5422 331.793 57.5889 331.749C57.6347 331.705 57.6811 331.639 57.7206 331.526C57.8075 331.275 57.8412 330.855 57.7931 330.134C57.7459 329.426 57.6262 328.493 57.4531 327.252L57.4529 327.251C56.7183 321.882 53.5931 314.928 49.9427 309.301C48.1207 306.492 46.1828 304.038 44.3707 302.293C43.4645 301.42 42.6004 300.735 41.8078 300.271C41.0102 299.804 40.3205 299.581 39.7531 299.581C39.2397 299.581 38.9242 299.62 38.7191 299.705C38.5571 299.772 38.4489 299.872 38.3696 300.105C38.278 300.375 38.2344 300.803 38.2609 301.491C38.287 302.17 38.3781 303.051 38.5219 304.202Z" fill="white" stroke="white"/>
<path d="M451.901 309.696L451.901 309.696L451.903 309.7C454.228 314.806 458.846 320.687 463.641 325.297C466.036 327.599 468.461 329.57 470.647 330.962C472.856 332.367 474.746 333.133 476.092 333.133C476.792 333.133 477.284 333.014 477.611 332.826C477.92 332.649 478.109 332.396 478.195 332.043C478.286 331.67 478.267 331.161 478.089 330.495C477.911 329.832 477.586 329.046 477.104 328.138C475.168 324.491 470.836 319.121 464.219 312.331C459.44 307.494 455.902 304.303 453.445 302.664C452.204 301.837 451.307 301.453 450.702 301.4C450.415 301.375 450.225 301.427 450.092 301.512C449.959 301.597 449.83 301.748 449.728 302.021C449.713 302.06 449.692 302.155 449.688 302.326C449.684 302.491 449.696 302.699 449.726 302.948C449.785 303.447 449.912 304.078 450.103 304.798C450.484 306.237 451.107 307.994 451.901 309.696Z" fill="white" stroke="white"/>
<path d="M434.633 310.498L434.631 310.496C432.447 308.369 430.646 306.726 429.174 305.538C427.692 304.342 426.581 303.64 425.773 303.353C425.372 303.211 425.086 303.185 424.886 303.22C424.702 303.252 424.558 303.339 424.432 303.506C424.296 303.687 424.175 303.971 424.09 304.396C424.006 304.818 423.964 305.348 423.964 305.991C423.964 308.773 424.878 312.142 426.43 315.677C427.979 319.206 430.147 322.867 432.619 326.225C435.091 329.583 437.857 332.626 440.595 334.924C443.343 337.23 446.016 338.746 448.303 339.128C449.13 339.257 449.622 339.089 449.919 338.803C450.232 338.501 450.441 337.964 450.464 337.123C450.509 335.44 449.797 332.895 448.444 329.879C445.749 323.875 440.632 316.269 434.633 310.498Z" fill="white" stroke="white"/>
<path d="M396.985 305.999L396.979 306.006L396.972 306.012C396.857 306.119 396.73 306.321 396.619 306.66C396.509 306.992 396.427 307.42 396.377 307.935C396.277 308.963 396.311 310.284 396.467 311.77C396.779 314.738 397.576 318.296 398.712 321.365C400.815 326.933 404.775 332.779 409.028 337.232C411.153 339.458 413.339 341.322 415.387 342.627C417.447 343.939 419.315 344.65 420.815 344.65C421.52 344.65 421.978 344.633 422.295 344.548C422.566 344.476 422.689 344.37 422.776 344.172C422.888 343.918 422.95 343.488 422.939 342.728C422.928 341.983 422.851 340.995 422.736 339.669C422.228 334.651 419.449 327.933 415.71 321.8C411.968 315.663 407.326 310.215 403.166 307.685L403.166 307.685L403.16 307.681C401.14 306.412 399.823 305.736 398.878 305.513C398.418 305.405 398.075 305.411 397.795 305.488C397.517 305.566 397.258 305.727 396.985 305.999Z" fill="white" stroke="white"/>
<path d="M80.1593 324.999L80.1593 324.999L80.1618 325.004C82.2676 329.273 85.433 333.638 88.5413 336.932C90.0952 338.579 91.6241 339.947 92.9874 340.898C94.3732 341.866 95.5095 342.347 96.2964 342.347C97.213 342.347 97.7956 341.988 98.1668 341.367C98.5616 340.706 98.7461 339.697 98.6902 338.369C98.5788 335.724 97.527 332.083 95.8382 328.218C94.1538 324.364 91.8552 320.331 89.2891 316.909C86.7159 313.477 83.9059 310.704 81.2118 309.315C80.2595 308.824 79.5498 308.463 79 308.209C78.4437 307.952 78.0893 307.824 77.839 307.779C77.615 307.738 77.5021 307.768 77.4008 307.822C77.2625 307.895 77.1134 308.032 76.8425 308.303C76.4816 308.664 76.2145 309.371 76.131 310.46C76.049 311.529 76.1505 312.88 76.4337 314.424C76.9997 317.509 78.2779 321.293 80.1593 324.999Z" fill="white" stroke="white"/>
<path d="M380.39 344.439L380.39 344.439L380.394 344.443C384.124 348.002 387.177 349.961 389.525 350.463C390.681 350.711 391.639 350.598 392.429 350.178C393.223 349.755 393.906 348.99 394.45 347.82C395.298 345.965 395.226 343.077 394.381 339.6C393.542 336.147 391.965 332.213 389.928 328.337C387.891 324.463 385.401 320.663 382.747 317.48C380.089 314.29 377.289 311.747 374.636 310.351C373.574 309.805 372.746 309.417 372.064 309.185C371.383 308.954 370.89 308.893 370.487 308.96C369.695 309.093 369.025 309.753 367.915 311.448C366.902 312.994 366.48 315.191 366.621 317.827C366.762 320.456 367.459 323.472 368.627 326.605C370.964 332.874 375.155 339.545 380.39 344.439Z" fill="white" stroke="white"/>
<path d="M364.816 351.514L364.816 351.514L364.818 351.505C365.46 348.183 365.046 344.135 363.87 339.905C362.695 335.682 360.771 331.314 358.43 327.366C356.088 323.417 353.34 319.908 350.53 317.393C347.706 314.866 344.886 313.402 342.392 313.402C341.415 313.402 340.345 313.593 339.424 313.895C338.488 314.202 337.79 314.598 337.475 314.954C336.589 316.026 336.003 317.754 335.741 319.956C335.481 322.148 335.55 324.749 335.92 327.505C336.662 333.022 338.6 339.084 341.434 343.618C343.128 346.329 345.942 349.432 348.799 351.975C350.225 353.245 351.653 354.367 352.947 355.225C354.249 356.09 355.379 356.664 356.216 356.873C358.472 357.424 360.43 357.138 361.906 356.215C363.379 355.294 364.434 353.7 364.816 351.514Z" fill="white" stroke="white"/>
<path d="M116.001 316.36L115.974 316.388L115.96 316.398C115.955 316.406 115.942 316.426 115.924 316.462C115.888 316.535 115.846 316.643 115.802 316.791C115.715 317.085 115.633 317.491 115.562 317.982C115.422 318.962 115.337 320.234 115.337 321.54C115.337 324.203 116.242 327.418 117.765 330.766C119.284 334.107 121.4 337.544 123.784 340.642C126.169 343.741 128.809 346.485 131.368 348.45C133.945 350.428 136.368 351.561 138.33 351.561C138.859 351.561 139.291 351.319 139.639 350.81C140.001 350.282 140.263 349.473 140.381 348.407C140.615 346.28 140.258 343.301 139.234 340.002C137.192 333.534 132.351 326.489 127.455 321.636C125.006 319.208 122.574 317.359 120.505 316.4C118.399 315.424 116.884 315.454 116.001 316.36Z" fill="white" stroke="white"/>
<path d="M305.349 319.441L305.347 319.444C302.958 322.267 302.127 327.377 303.27 334.009L303.27 334.009L303.272 334.022C304.408 341.865 307.356 347.993 312.935 354.143C318.139 359.862 323.264 362.338 326.985 361.986C328.821 361.813 330.339 360.952 331.41 359.409C332.49 357.853 333.14 355.567 333.14 352.521C333.14 346.872 330.901 339.697 327.625 333.388C324.342 327.064 320.083 321.737 316.135 319.679L316.132 319.678C314.135 318.624 311.796 318.094 309.755 318.08C308.736 318.074 307.807 318.195 307.041 318.434C306.271 318.674 305.699 319.021 305.349 319.441Z" fill="white" stroke="white"/>
<path d="M157.322 337.796L157.323 337.799C160.062 343.676 163.941 349.008 167.923 352.763C169.914 354.64 171.919 356.112 173.808 357.064C175.701 358.018 177.441 358.43 178.919 358.245C180.311 358.071 180.921 357.851 181.285 357.403C181.473 357.173 181.625 356.844 181.75 356.337C181.876 355.829 181.967 355.174 182.053 354.315L182.053 354.314C182.612 348.838 180.841 343.429 175.567 335.287C172.084 329.919 167.988 325.805 164.295 323.535C162.447 322.399 160.729 321.743 159.258 321.6C157.8 321.458 156.606 321.82 155.727 322.7C155.277 323.149 154.933 323.883 154.738 324.889C154.544 325.888 154.506 327.112 154.633 328.491C154.886 331.248 155.789 334.56 157.322 337.796Z" fill="white" stroke="white"/>
<path d="M271.781 346.876L271.781 346.876L271.785 346.883C275.2 353.657 280.491 359.17 285.501 362.17C288.008 363.672 290.41 364.524 292.447 364.619C294.466 364.714 296.102 364.069 297.192 362.591C298.057 361.411 298.536 359.606 298.619 357.34C298.702 355.086 298.389 352.432 297.727 349.612C296.402 343.97 293.693 337.728 290.052 332.777L290.05 332.775C286.576 327.99 282.616 324.783 279.004 323.388C275.4 321.997 272.219 322.422 270.098 324.753C269.509 325.417 269.059 326.675 268.805 328.394C268.554 330.091 268.507 332.156 268.656 334.347C268.955 338.74 270.039 343.56 271.781 346.876Z" fill="white" stroke="white"/>
<path d="M208.649 358.573L208.655 358.578L208.661 358.583C211.076 360.538 212.7 361.651 214.114 362.255C215.501 362.847 216.71 362.961 218.327 362.849L222.004 362.543L221.896 355.524L221.896 355.524V355.516C221.896 349.948 221.107 346.803 218.844 342.504L218.844 342.504L218.842 342.499C215.538 336.062 210.671 330.745 206.026 327.672C203.703 326.135 201.463 325.177 199.524 324.902C197.594 324.627 196.005 325.03 194.881 326.155C194.238 326.798 193.83 328.03 193.725 329.77C193.623 331.486 193.821 333.597 194.283 335.88C195.208 340.449 197.173 345.627 199.781 349.597C201.355 351.958 205.342 356.064 208.649 358.573Z" fill="white" stroke="white"/>
<path d="M233.399 327.241L233.398 327.243C232.548 328.439 232.046 330.118 231.889 332.133C231.734 334.143 231.925 336.452 232.429 338.872C233.437 343.716 235.683 348.943 238.8 353.024L238.8 353.024L238.804 353.029C240.952 355.912 244.364 359.016 247.705 361.401C249.373 362.591 251.011 363.594 252.452 364.297C253.911 365.008 255.106 365.382 255.907 365.382C258.21 365.382 259.778 364.277 260.714 362.401C261.668 360.489 261.969 357.756 261.6 354.566C260.864 348.195 257.485 340.229 251.85 333.968C247.728 329.386 243.881 326.521 240.672 325.41C239.074 324.856 237.66 324.747 236.457 325.048C235.262 325.347 234.23 326.062 233.399 327.241Z" fill="white" stroke="white"/>
</svg>
